<?xml version="1.0" ?><!DOCTYPE svg  PUBLIC '-//W3C//DTD SVG 1.1//EN'  'http://www.w3.org/Graphics/SVG/1.1/DTD/svg11.dtd'><svg enable-background="new 0 0 128 128" height="128px" id="Layer_1" version="1.1" viewBox="0 0 128 128" width="128px" xml:space="preserve" xmlns="http://www.w3.org/2000/svg" xmlns:xlink="http://www.w3.org/1999/xlink"><g><path d="M116,27H91l-4.318-5.979C85.086,18.809,81.578,17,78.891,17H49.112c-2.687,0-6.196,1.809-7.792,4.021L37,27   H12C5.4,27,0,32.4,0,39v60c0,6.6,5.4,12,12,12h104c6.6,0,12-5.4,12-12V39C128,32.4,122.6,27,116,27z M92.461,76.295   c-1.156,5.416-3.846,10.358-7.779,14.294C79.259,96.013,72.049,99,64.38,99c-7.562,0-14.675-2.91-20.07-8.191l-5.913,5.914   L32,72.854l23.871,6.393l-5.899,5.9C53.856,88.916,58.955,91,64.38,91c5.532,0,10.732-2.154,14.645-6.066   c2.839-2.842,4.779-6.406,5.612-10.309c0.461-2.16,2.583-3.54,4.747-3.078C91.544,72.009,92.922,74.134,92.461,76.295z    M72.129,58.188l5.899-5.898c-8.094-7.847-21.051-7.784-29.051,0.214c-2.839,2.839-4.779,6.403-5.612,10.308   c-0.401,1.88-2.062,3.167-3.908,3.167c-0.276,0-0.558-0.028-0.839-0.089c-2.16-0.461-3.538-2.586-3.077-4.746   c1.156-5.419,3.847-10.363,7.779-14.296c11.12-11.117,29.16-11.188,40.37-0.219l5.915-5.915L96,64.581L72.129,58.188z" fill="#ffffff" stroke="#000000" stroke-width="0.2"/></g></svg>
