<?xml version="1.0" ?><!DOCTYPE svg  PUBLIC '-//W3C//DTD SVG 1.1//EN'  'http://www.w3.org/Graphics/SVG/1.1/DTD/svg11.dtd'><svg height="512px" style="shape-rendering:geometricPrecision; text-rendering:geometricPrecision; image-rendering:optimizeQuality; fill-rule:evenodd; clip-rule:evenodd" version="1.1" viewBox="0 0 512 512" width="512px" xml:space="preserve" xmlns="http://www.w3.org/2000/svg" xmlns:xlink="http://www.w3.org/1999/xlink"><g id="Layer_x0020_1" style="fill:#646464"><path d="M12 12l20 0 74 0 0 20 -74 0 0 74 -20 0 0 -74 0 -20zm165 391l0 0 -4 0c-70,0 -53,-56 -47,-70 16,-37 42,-78 83,-96 -17,-14 -28,-37 -28,-62 0,-43 32,-78 72,-78 0,0 1,0 1,0 0,0 1,0 1,0 40,0 72,35 72,78 0,25 -11,48 -28,62 41,18 68,59 83,96 6,14 24,70 -47,70l-4 0 0 0 -3 0 -4 0 0 0 0 0 0 0 0 0 0 0 0 0 -1 0 -1 0 -1 0 -1 0 0 0 -1 0 -1 0 -1 0 0 0 -1 0 -1 0 -1 0 0 0 -1 0 -2 0 -1 0 -1 0 -2 0 -1 0 -1 0 -2 0 -1 0 -1 0 -2 0 -1 0 -1 0 -2 0 0 0 -2 0 -1 0 -1 0 -2 0 0 0 -2 0 -1 0 -1 0 -2 0 0 0 -3 0 -1 0 -2 0 -1 0 -1 0 -2 0 -1 0 -2 0 0 0 -3 0 0 0 -3 0 0 0 -3 0 0 0 -3 0 -1 0 -3 0 -1 0 -3 0 0 0 -3 0 0 0 -3 0 0 0 -3 0 0 0 -2 0 -1 0 -2 0 -1 0 -1 0 -2 0 -1 0 -3 0 0 0 -2 0 -1 0 -1 0 -2 0 0 0 -2 0 -1 0 -1 0 -2 0 0 0 -2 0 -1 0 -1 0 -2 0 -1 0 -1 0 -2 0 -1 0 -1 0 -2 0 -1 0 -1 0 -2 0 -1 0 0 0 -1 0 -1 0 -1 0 0 0 -1 0 -1 0 -1 0 0 0 -1 0 -1 0 -1 0 -1 0 0 0 0 0 0 0 0 0 0 0 0 0 -4 0 -3 0zm321 -391l-20 0 -74 0 0 20 74 0 0 74 20 0 0 -74 0 -20zm0 486l-20 0 -74 0 0 -20 74 0 0 -74 20 0 0 74 0 20zm-486 0l20 0 74 0 0 -20 -74 0 0 -74 -20 0 0 74 0 20z"/></g></svg>
