<?xml version="1.0" ?><!DOCTYPE svg  PUBLIC '-//W3C//DTD SVG 1.1//EN'  'http://www.w3.org/Graphics/SVG/1.1/DTD/svg11.dtd'><svg enable-background="new 0 0 128 128" height="128px" id="Layer_1" version="1.1" viewBox="0 0 128 128" width="128px" xml:space="preserve" xmlns="http://www.w3.org/2000/svg" xmlns:xlink="http://www.w3.org/1999/xlink"><g><path d="M90.828,37.171c-1.561-1.562-4.096-1.562-5.656,0L64,58.343L42.829,37.171   c-1.562-1.562-4.095-1.562-5.657,0c-1.562,1.562-1.562,4.095,0,5.657L58.343,64L37.171,85.172c-1.562,1.562-1.562,4.095,0,5.656   C37.953,91.609,38.976,92,40,92s2.047-0.391,2.829-1.172L64,69.656l21.172,21.172C85.952,91.609,86.977,92,88,92   s2.048-0.391,2.828-1.172c1.562-1.562,1.562-4.095,0-5.656L69.656,64l21.172-21.171C92.391,41.266,92.391,38.734,90.828,37.171z" fill="#ffffff"/><path d="M64,0C28.71,0,0,28.71,0,64c0,35.29,28.71,64,64,64c35.29,0,64-28.71,64-64C128,28.71,99.29,0,64,0z    M64,120C33.122,120,8,94.879,8,64C8,33.122,33.122,8,64,8c30.879,0,56,25.122,56,56C120,94.879,94.879,120,64,120z" fill="#ffffff"/></g></svg>
