<?xml version="1.0" ?><!DOCTYPE svg  PUBLIC '-//W3C//DTD SVG 1.1//EN'  'http://www.w3.org/Graphics/SVG/1.1/DTD/svg11.dtd'><svg enable-background="new 0 0 128 128" height="128px" id="Layer_1" version="1.1" viewBox="0 0 128 128" width="128px" xml:space="preserve" xmlns="http://www.w3.org/2000/svg" xmlns:xlink="http://www.w3.org/1999/xlink"><path d="M116,35.999H88c-2.209,0-4,1.791-4,4s1.791,4,4,4h28c2.206,0,4,1.794,4,4V116c0,2.206-1.794,4-4,4H12c-2.206,0-4-1.794-4-4  V47.999c0-2.206,1.794-4,4-4h28c2.209,0,4-1.791,4-4s-1.791-4-4-4H12c-6.617,0-12,5.383-12,12V116c0,6.617,5.383,12,12,12h104  c6.617,0,12-5.383,12-12V47.999C128,41.382,122.617,35.999,116,35.999z"/><path d="M81.17,69.337L67.999,82.509V4c0-2.209-1.791-4-4-4s-4,1.791-4,4v78.509L46.827,69.337c-0.78-0.779-1.805-1.171-2.828-1.171  s-2.048,0.392-2.828,1.171c-1.562,1.562-1.562,4.096,0,5.657l20,20c1.562,1.562,4.095,1.562,5.657,0l20-20  c1.562-1.562,1.562-4.095,0-5.657C85.266,67.776,82.732,67.776,81.17,69.337z"/></svg>