<?xml version="1.0" ?><!DOCTYPE svg  PUBLIC '-//W3C//DTD SVG 1.1//EN'  'http://www.w3.org/Graphics/SVG/1.1/DTD/svg11.dtd'><svg enable-background="new 0 0 128 128" height="128px" id="Layer_1" version="1.1" viewBox="0 0 128 128" width="128px" xml:space="preserve" xmlns="http://www.w3.org/2000/svg" xmlns:xlink="http://www.w3.org/1999/xlink"><g><path d="M64.002,0C28.654,0,0,28.658,0,63.998C0,99.348,28.654,128,64.002,128C99.348,128,128,99.348,128,63.998   C128,28.658,99.348,0,64.002,0z M102.535,67.535L75.992,94.077c-0.975,0.977-2.256,1.465-3.535,1.465s-2.559-0.488-3.535-1.465   c-1.953-1.952-1.953-5.118,0-7.07L86.93,69H29c-2.761,0-5-2.238-5-5c0-2.761,2.239-5,5-5H86.93L68.922,40.993   c-1.953-1.953-1.953-5.119,0-7.071c1.951-1.952,5.119-1.952,7.07,0l26.543,26.543C103.475,61.402,104,62.674,104,64   S103.475,66.598,102.535,67.535z" fill="#fbbb1a"/></g></svg>
