<?xml version="1.0" ?><!DOCTYPE svg  PUBLIC '-//W3C//DTD SVG 1.1//EN'  'http://www.w3.org/Graphics/SVG/1.1/DTD/svg11.dtd'><svg height="512px" style="shape-rendering:geometricPrecision; text-rendering:geometricPrecision; image-rendering:optimizeQuality; fill-rule:evenodd; clip-rule:evenodd" version="1.1" viewBox="0 0 512 512" width="512px" xml:space="preserve" xmlns="http://www.w3.org/2000/svg" xmlns:xlink="http://www.w3.org/1999/xlink"><g id="Layer_x0020_1" style="fill:#646464"><path d="M442,175.992h38V128c0-26.508-21.5-48-48-48H80c-26.5,0-48,21.492-48,48v47.992h38.008   c5.516,0,9.992,4.477,9.992,9.992v188.023c0,5.517-4.477,9.992-9.992,9.992H32v48c0,26.5,21.5,48,48,48h352c26.5,0,48-21.5,48-48   v-48h-38c-5.531,0-10-4.478-10-9.992V185.984C432,180.469,436.469,175.992,442,175.992z M320,112h32v32h-32V112z M240,112h32v32   h-32V112z M160,112h32v32h-32V112z M112,448H80v-32h32V448z M112,144H80v-32h32V144z M192,448h-32v-32h32V448z M272,448h-32v-32h32   V448z M352,448h-32v-32h32V448z M384,374.008c0,5.516-4.469,9.992-10,9.992H137.992c-5.516,0-9.992-4.477-9.992-9.992V185.992   c0-5.516,4.477-9.992,9.992-9.992H374c5.531,0,10,4.477,10,9.992V374.008z M432,448h-32v-32h32V448z M400,144v-32h32v32H400z    M331.422,287.531l-125.5,63.273c-2.852,1.586-6.398,1.586-9.281,0.022c-2.859-1.556-4.641-4.438-4.641-7.578V216.734   c0-3.133,1.781-6.016,4.641-7.578c2.883-1.555,6.43-1.555,9.281,0.031l125.5,63.258c2.828,1.57,4.578,4.445,4.578,7.547   C336,283.102,334.25,285.977,331.422,287.531z" /></g></svg>
