<?xml version="1.0" ?><!DOCTYPE svg  PUBLIC '-//W3C//DTD SVG 1.1//EN'  'http://www.w3.org/Graphics/SVG/1.1/DTD/svg11.dtd'><svg enable-background="new 0 0 78 78" height="78px" id="Layer_1" version="1.1" viewBox="0 0 78 78" width="78px" xml:space="preserve" xmlns="http://www.w3.org/2000/svg" xmlns:xlink="http://www.w3.org/1999/xlink"><path d="M39,60c10.557,0,19.297-7.842,20.76-18H18.24C19.703,52.158,28.443,60,39,60z M39,0C17.461,0,0,17.461,0,39  s17.461,39,39,39s39-17.461,39-39S60.539,0,39,0z M39,70.5C21.604,70.5,7.5,56.396,7.5,39S21.604,7.5,39,7.5S70.5,21.604,70.5,39  S56.396,70.5,39,70.5z M21,31.5c0.828,0,1.5-0.672,1.5-1.5c0-3.309,2.691-6,6-6s6,2.691,6,6c0,0.828,0.672,1.5,1.5,1.5  s1.5-0.672,1.5-1.5c0-4.963-4.037-9-9-9s-9,4.037-9,9C19.5,30.828,20.172,31.5,21,31.5z M42,31.5c0.828,0,1.5-0.672,1.5-1.5  c0-3.309,2.691-6,6-6s6,2.691,6,6c0,0.828,0.672,1.5,1.5,1.5s1.5-0.672,1.5-1.5c0-4.963-4.037-9-9-9s-9,4.037-9,9  C40.5,30.828,41.172,31.5,42,31.5z" fill="#646464"/></svg>
